<?xml version="1.0" encoding="UTF-8" standalone="no"?>
<svg
        xmlns:dc="http://purl.org/dc/elements/1.1/"
        xmlns:cc="http://creativecommons.org/ns#"
        xmlns:rdf="http://www.w3.org/1999/02/22-rdf-syntax-ns#"
        xmlns:sodipodi="http://sodipodi.sourceforge.net/DTD/sodipodi-0.dtd"
        xmlns:inkscape="http://www.inkscape.org/namespaces/inkscape"
        xmlns="http://www.w3.org/2000/svg"
        width="180pt"
        height="180pt"
        viewBox="0 0 180 180"
        version="1.1"
        id="svg3336"
        inkscape:version="0.91 r13725"
        sodipodi:docname="logo_clean.svg"
        inkscape:export-filename="C:\Users\gregor.noczinski\Dropbox\Photos\echocat\logo_clean.png"
        inkscape:export-xdpi="1024.1125"
        inkscape:export-ydpi="1024.1125">
    <metadata
            id="metadata3383">
        <rdf:RDF>
            <cc:Work
                    rdf:about="">
                <dc:format>image/svg+xml</dc:format>
                <dc:type
                        rdf:resource="http://purl.org/dc/dcmitype/StillImage" />
                <dc:title></dc:title>
            </cc:Work>
        </rdf:RDF>
    </metadata>
    <defs
            id="defs3381" />
    <sodipodi:namedview
            pagecolor="#ffffff"
            bordercolor="#666666"
            borderopacity="1"
            objecttolerance="10"
            gridtolerance="10"
            guidetolerance="10"
            inkscape:pageopacity="0"
            inkscape:pageshadow="2"
            inkscape:window-width="1920"
            inkscape:window-height="1017"
            id="namedview3379"
            showgrid="false"
            inkscape:zoom="2.6335799"
            inkscape:cx="96.194662"
            inkscape:cy="81.904417"
            inkscape:window-x="-8"
            inkscape:window-y="104"
            inkscape:window-maximized="1"
            inkscape:current-layer="svg3336" />
    <rect
            style="fill:#cbe2f5;fill-opacity:1"
            id="rect4261"
            width="177.70488"
            height="176.48981"
            x="1.2150761"
            y="1.9913505" />
    <g
            id="#72a7cdff"
            transform="matrix(1.0366864,0,0,0.95762254,-6.9193619,8.1984448)">
        <path
                d="M 80.45,48.51 C 87.16,39.7 94.3,28.8 106.12,27 c 4.94,1.33 6.43,8.37 4.79,12.71 C 104.69,50.61 99.258201,62.272151 90.928201,71.782151 89.518201,71.482151 88.22,70.84 86.91,70.27 83.18,67.48 79.38,64.78 75.55,62.14 c -2.82,-5.21 2.34,-9.58 4.9,-13.63 z"
                id="path3361"
                inkscape:connector-curvature="0"
                style="opacity:1;fill:#72a7cd"
                sodipodi:nodetypes="ccccccc" />
        <path
                d="m 88.34,126.37 c 6.98,-7.65 6.79,-18.59 9.52,-28 6.25,8.73 8.41,20.74 4.7,30.95 -3.86,12.15 -12.77,21.94 -22.6,29.67 -5.922549,3.97563 -11.532375,9.74025 -18.996402,11.08038 -15.39,2.43 -28.65673,-5.95054 -37.441085,-18.49705 -4.862618,-7.10569 -11.699243,-15.31113 -12.242776,-23.35703 5.16,1.36 8.402053,4.65752 13.522053,6.17752 10.07,4.35 20.46821,3.99618 31.10821,4.34618 11.4,-1.75 24.2,-3.35 32.43,-12.37 z"
                id="path3363"
                inkscape:connector-curvature="0"
                style="opacity:1;fill:#72a7cd"
                sodipodi:nodetypes="sccccccccs" />
    </g>
    <path
            style="opacity:1;fill:#000000"
            inkscape:connector-curvature="0"
            id="path3346"
            d="m 137.67766,18.272633 c 15.86129,-0.325591 29.81644,18.836728 32.84357,32.415814 2.12401,19.37356 0.89486,25.515306 -7.15568,43.524905 -6.52076,9.011228 -17.84019,17.207218 -30.10418,18.155268 -0.71532,-7.4886 8.61486,-8.52284 13.69462,-11.7596 C 162.17455,89.194159 163.1283,69.696964 160.61952,52.727893 157.79974,40.58524 147.44323,30.08012 134.39135,26.843355 c -4.87242,-1.675839 0.0933,-7.555641 3.28631,-8.570722 z"
            sodipodi:nodetypes="cccccccc" />
    <path
            style="opacity:1;fill:#000000"
            inkscape:connector-curvature="0"
            id="path3348"
            d="m 129.32196,34.686284 c 9.76559,0 18.17311,7.009798 21.97775,14.967641 7.80625,17.696865 -4.12602,41.417175 -25.34699,44.47199 -1.38915,-6.463952 7.60928,-5.956412 11.59016,-8.915465 11.61088,-7.919539 12.20181,-24.88861 4.56141,-35.403306 -3.8461,-6.042597 -11.78711,-7.325812 -17.97613,-10.409356 0.29027,-2.250414 3.01675,-3.887948 5.1938,-4.711504 z" />
    <path
            style="opacity:1;fill:#000000"
            inkscape:connector-curvature="0"
            id="path3350"
            d="m 127.16564,51.913914 c 16.25525,1.905669 13.91234,25.731318 -1.22328,27.991307 0.0207,-2.001431 1.46173,-3.35168 3.2552,-4.232691 6.76955,-3.035665 7.1324,-12.860872 2.75759,-17.639407 -2.12522,-1.47474 -10.49127,-4.357184 -4.78951,-6.119209 z" />
    <g
            id="#5d9ac6ff"
            transform="matrix(1.0366864,0,0,0.95762254,-6.9193619,8.1984448)">
        <path
                d="M 43.35,64.28 C 49.12,61.04 56.78358,64.19301 62.44358,65.773007 71.81358,70.373007 79.39,77.1 86.18,85.12 c -2.32,1.59 -5.21,-0.3 -7.75,-0.43 -19.44,-3.6 -38.87,7.06 -50.7,22.04 -5.7,5.51 -9.81,12.54 -16.03,17.5 C 8.88,100.64 20.37,73.6 43.35,64.28 Z"
                id="path3366"
                inkscape:connector-curvature="0"
                style="opacity:1;fill:#5d9ac6"
                sodipodi:nodetypes="ccccccc" />
    </g>
    <g
            id="#ecc91aff"
            transform="matrix(1.0366864,0,0,0.95762254,-6.9193619,8.1984448)">
        <path
                d="m 64.37,88.11 c 8.24,0.51 17.39,-0.38 24.67,4.08 1.19,10.72 -0.95,21.76 -4.98,31.7 -5.4,8.88 -16.89,10.44 -26.35,11.33 1.65,-11.95 6.36,-23.72 4.77,-35.97 -0.92,-3.87 -4.69,-6.26 -5.62,-10.13 2.46,-0.58 4.98,-0.92 7.51,-1.01 z"
                id="path3369"
                inkscape:connector-curvature="0"
                style="opacity:1;fill:#ecc91a" />
        <path
                d="m 39.23,99.87 c 2.01,-0.5 3.14,1.53 4.1,2.9 5.88,9.71 11.44,20.62 10.76,32.24 -11.9,1.49 -26.32,-0.59 -34.45,-10.06 4.48,-9.67 14.14,-15.9 19.59,-25.08 z"
                id="path3371"
                inkscape:connector-curvature="0"
                style="opacity:1;fill:#ecc91a" />
    </g>
    <g
            id="#b4b2a8ff"
            transform="matrix(1.0366864,0,0,0.95762254,-6.9193619,8.1984448)"
            style="fill:#ffffff">
        <path
                d="m 54.15,98.72 c 6.05,-1.76 7.84,12.36 1.05,10.51 -3.39,-2.04 -3.71,-7.89 -1.05,-10.51 z"
                id="path3374"
                inkscape:connector-curvature="0"
                style="opacity:1;fill:#ffffff" />
    </g>
    <path
            style="fill:#2b7bb5;fill-opacity:1"
            d="M 5.6998595,97.887228 C 5.7828817,85.168611 4.9462258,82.173191 5.6305945,75.389522 6.1748211,69.994996 5.5026242,60.182631 5.8927109,59.803827 c 0.041808,-0.0406 5.0545021,-0.01203 6.9732021,-0.08058 10.419157,-0.372252 22.9956,2.257665 34.25314,6.838888 3.370256,1.371516 9.67859,4.303961 9.774874,4.476696 0.133977,0.240357 -1.245063,-0.215988 -2.72145,-0.483077 -9.78129,-1.769505 -12.306957,-2.135207 -19.847763,1.496737 -5.181904,2.495804 -9.045091,5.140331 -12.9298,8.851035 C 17.021799,85.08076 14.331812,88.7587 11.159649,94.897905 8.8167405,99.432223 8.1380923,101.24539 6.6499219,106.9467 l -1.0350912,3.96553 z"
            id="path3488"
            inkscape:connector-curvature="0"
            sodipodi:nodetypes="sscsssssssscs" />
    <path
            style="fill:#2b7bb5;fill-opacity:1"
            d="m 29.888049,174.54046 c -1.990651,-0.15486 -8.693239,0.14816 -13.244149,0.0739 l -11.1283635,-0.1815 0.083566,-4.98939 c 0.071507,-4.2694 0.5546745,-6.7759 0.030453,-17.03021 -0.5046012,-9.87052 -1.966892,-14.65282 -0.1623228,-16.36871 l 0.4154384,-0.47469 0.9001621,2.00555 c 1.3877034,3.0918 2.7049378,5.06581 8.5680248,12.68481 7.406613,9.62481 12.091548,13.7771 19.524333,17.30458 3.199677,1.51852 5.822712,2.39261 9.142754,3.04671 2.020466,0.39807 3.017785,0.46335 7.037932,0.46067 4.408375,-0.003 4.802852,-0.0353 6.70647,-0.55024 4.007115,-1.08393 7.306709,-2.7456 12.877877,-6.48529 1.613334,-1.08295 5.443849,-3.75561 5.493164,-3.70773 -1.721464,2.03444 -5.165413,4.66102 -7.434965,6.38558 -2.26965,1.72463 -3.208725,3.02464 -7.263309,5.31214 -3.674742,2.07321 -4.773614,2.47776 -10.531815,2.53548 -3.962552,0.0397 -15.991064,0.36916 -21.01525,-0.0217 z"
            id="path3490"
            inkscape:connector-curvature="0"
            sodipodi:nodetypes="cscssscsssscsscssssc" />
    <path
            style="fill:#2b7bb5;fill-opacity:1"
            d="M 96.483983,86.514168 C 94.597861,85.468374 93.035759,84.378538 89.342269,80.915471 87.429607,79.122132 85.475965,77.280022 85.033666,76.953161 84.59136,76.6263 83.213017,75.496745 83.2505,75.460342 c 0.03751,-0.03641 1.852765,0.814216 2.590024,1.03704 0.737268,0.222824 1.409165,0.405137 1.493114,0.405137 0.22982,0 2.904249,-3.396194 4.730749,-5.753201 2.312824,-2.984592 5.751652,-8.067755 8.699243,-12.961333 5.58437,-9.271125 7.27612,-12.022232 7.55287,-12.814223 0.37738,-1.079977 0.35031,-4.134767 -0.0273,-5.447891 -0.71481,-2.486073 -2.00656,-4.420891 -3.89675,-5.313013 -1.07636,-0.508017 -1.17319,-0.538398 -2.63594,-0.238365 -6.189782,1.269618 -11.770789,4.822601 -17.482563,11.11426 -4.492908,4.949047 -11.844005,14.19115 -12.850172,16.17585 -0.842172,1.661217 -0.9815,3.673353 -0.438729,4.934815 0.181278,0.421266 0.50959,1.195532 0.628169,1.517728 C 67.187838,64.232484 55.050551,62.621337 59.54011,57.769156 74.903047,41.16534 84.522888,33.182083 95.472758,26.232671 c 3.296246,-2.091986 4.104539,-2.49876 5.475102,-2.49876 2.05807,0 4.63123,1.534638 6.10286,3.76165 0.95308,1.442297 1.36076,2.66464 1.81365,5.783565 2.20958,15.216917 -0.1474,31.29611 -6.68263,46.27558 -1.73663,3.980552 -3.516788,7.773809 -3.89653,7.771768 -0.198967,-7.71e-4 -1.157195,-0.455205 -1.801227,-0.812306 z"
            id="path3492"
            inkscape:connector-curvature="0"
            sodipodi:nodetypes="ssscssssscsssscccssssscs" />
    <path
            style="opacity:1;fill:#000000"
            d="M 108.90776,8.1234343 C 92.053234,13.374801 67.589589,39.30515 55.19921,54.020684 53.716747,55.39966 52.462681,57.639899 50.244171,57.908032 34.517253,52.197751 17.392776,50.986976 0.65168852,50.481968 L 0.76302237,177.04907 C 21.652582,180.97403 52.980885,180.37962 63.64356,176.6634 c 16.932532,-5.39194 39.16943,-28.59584 44.88183,-50.1028 3.06859,-10.26572 0.1257,-20.96177 -4.7882,-30.26986 10.10247,-17.511096 19.1503,-46.901645 19.45693,-67.797631 -0.317,-10.749296 1.0333,-20.3370905 -14.26942,-20.3696747 z m -7.96152,15.7366277 c 3.98799,-0.120433 7.32483,4.288354 7.6002,8.0964 3.08933,18.826859 -0.89187,38.411439 -10.232417,55.332626 C 92.747018,85.431301 88.558805,78.880865 83.178403,75.49088 79.311562,72.819114 75.372802,70.233832 71.402293,67.705708 66.944542,65.369108 62.580092,62.85924 58.599216,59.842729 70.147902,47.15423 82.350025,34.255954 97.496012,25.139386 c 1.165624,-0.856772 2.333577,-1.245602 3.450228,-1.279324 z m -85.866794,36.02606 c 14.444584,0.0652 28.778179,4.545423 41.622862,11.194593 9.379734,5.022145 18.680534,10.95073 25.719636,18.630859 -2.405112,1.52262 -5.401135,-0.286989 -8.034319,-0.411478 -20.153182,-3.447442 -40.295998,6.759917 -52.559998,21.105114 -5.909113,5.2765 -10.16957,12.00858 -16.6177588,16.75838 0.042485,2.16788 0.3215471,-1.38033 0.1610712,-4.98862 0.5728733,-20.39525 -4.69606455,-40.329474 0.1535981,-62.216291 2.0241309,-0.160401 7.4913965,-0.08187 9.5549085,-0.07256 z m 44.733018,32.687847 c 8.542295,0.488388 18.028297,-0.362702 25.575374,3.908295 1.233657,10.265706 -0.986146,20.837866 -5.163992,30.356636 -5.598109,8.50368 -17.509632,9.99728 -27.316685,10.84956 1.710532,-11.44359 6.593647,-22.7151 4.945317,-34.44598 -0.953751,-3.705998 -4.862383,-5.994417 -5.8265,-9.700416 2.550248,-0.55542 5.163669,-0.88191 7.786486,-0.968095 z m 34.717655,9.826101 c 6.479291,8.36005 8.718541,19.86109 4.872427,29.63843 -4.001611,11.6351 -14.574551,20.18774 -23.874465,28.82434 -10.387527,8.67583 -10.520464,9.68304 -20.837522,13.73549 -17.425016,3.15518 -33.249735,1.75117 -48.8545611,0.0602 -2.1422292,-13.61739 0.142882,-27.36315 -0.37717,-40.57512 l 6.5848491,2.39774 c 4.843655,2.00013 3.934829,1.71922 9.242663,3.1748 11.663628,3.44205 18.88412,1.74037 29.914464,2.07553 11.818224,-1.67583 24.929426,-3.88024 33.461354,-12.518 7.236071,-7.32582 7.037806,-17.80221 9.867961,-26.81343 z m -44.190377,0.19003 c 5.346021,0.0903 6.56514,11.87002 -0.03403,10.20915 -3.514367,-1.95354 -3.846107,-7.55504 -1.088521,-10.06401 0.391997,-0.10534 0.766135,-0.15116 1.122551,-0.14514 z m -15.849962,1.17458 c 1.633773,0.0693 2.639339,1.70098 3.510154,2.84893 6.095716,9.29851 11.860664,19.74528 11.155718,30.87286 -12.336568,1.42686 -27.285586,-0.5644 -35.713847,-9.6331 4.644356,-9.26019 14.657775,-15.22589 20.307715,-24.01686 0.260467,-0.0598 0.506862,-0.0817 0.74026,-0.0718 z"
            id="path3344"
            inkscape:connector-curvature="0"
            sodipodi:nodetypes="cccccccccccsccccccsscccccccscccccccsccccccccscsccscccccccc" />
    <path
            style="fill:#5d9ac6;fill-opacity:1"
            d="m 5.5363101,119.22975 0.091089,-7.69729 1.0488157,-4.1677 c 1.4767614,-5.86823 2.0660004,-7.474894 4.461551,-12.165226 3.134465,-6.137071 5.804331,-9.855876 10.003285,-13.933387 4.032384,-3.915755 7.906206,-6.562588 13.521236,-9.238533 4.774576,-2.275413 6.676183,-2.81727 9.900024,-2.82098 2.666572,-0.0031 4.313135,0.278293 9.937724,1.698147 3.053763,0.770882 3.404608,0.914209 6.387113,2.609238 7.290717,4.143493 13.410455,8.540174 18.22969,13.09699 2.856126,2.7006 3.125078,3.015027 2.785372,3.256249 -0.550252,0.390712 -2.762792,0.327595 -4.802038,-0.136985 -6.275425,-1.429685 -13.835029,-1.507548 -20.422195,-0.210353 -10.775633,2.122019 -21.642549,7.840611 -30.113779,15.84704 -2.457629,2.32278 -9.380056,9.57058 -12.602527,13.19487 -2.80035,3.14953 -5.7536847,6.11505 -7.5337622,7.56485 l -0.9826938,0.80035 0.091089,-7.69728 z"
            id="path3494"
            inkscape:connector-curvature="0" />
    <path
            style="fill:#000000;fill-opacity:1"
            d="M -0.46484375 -0.46484375 L -0.46484375 225.46484 L 225.46484 225.46484 L 225.46484 -0.46484375 L -0.46484375 -0.46484375 z M 7.3203125 7.3203125 L 217.67969 7.3203125 L 217.67969 217.67969 L 7.3203125 217.67969 L 7.3203125 7.3203125 z "
            transform="scale(0.8,0.8)"
            id="rect3398" />
    <path
            style="fill:#2b7bb5;fill-opacity:1"
            d="m 120.52099,107.82067 c -2.23674,-1.21402 -4.76108,-3.30531 -10.60434,-8.785144 l -3.60075,-3.376807 1.54496,0.247048 c 1.50605,0.240828 1.58821,0.19587 3.26219,-1.785 4.9134,-5.814155 11.06138,-14.82642 18.28701,-26.806749 6.24211,-10.349612 6.32046,-10.522403 6.32046,-13.939158 0,-4.758128 -1.94702,-8.615124 -5.12941,-10.161251 -1.61436,-0.784313 -1.67996,-0.786228 -4.42493,-0.129121 -3.594,0.860352 -8.26695,3.043407 -11.97335,5.593571 -5.12438,3.525805 -13.37576,12.501697 -21.81395,23.729343 -3.606466,4.798674 -4.359531,6.610303 -4.002147,9.627857 0.123092,1.039315 0.0995,1.889664 -0.05243,1.889664 -0.494235,0 -9.956432,-5.6406 -12.464597,-7.430388 l -2.441607,-1.742294 4.286636,-4.613633 C 93.430481,53.224026 104.35674,43.342379 116.23234,35.303506 c 6.44871,-4.365286 8.23179,-5.297586 10.13192,-5.297586 3.18676,0 6.34,2.440339 8.07313,6.24791 2.26615,4.978596 2.97938,23.185287 1.33198,34.001486 -1.94136,12.746225 -5.33614,23.538208 -10.88415,34.600624 -1.13918,2.27146 -2.11252,4.12537 -2.16299,4.11981 -0.0505,-0.006 -1.04102,-0.52535 -2.20124,-1.15508 z"
            id="path3441"
            inkscape:connector-curvature="0"
            transform="scale(0.8,0.8)" />
    <path
            style="fill:#2b7bb5;fill-opacity:1"
            d="m 120.54206,107.83003 c -2.35983,-1.28319 -4.90792,-3.38764 -10.42774,-8.612205 l -3.81143,-3.607561 1.59087,0.262217 1.59087,0.262214 3.26861,-4.1114 c 4.39386,-5.526774 10.41738,-14.498907 16.52606,-24.615813 6.26662,-10.378491 6.4324,-10.737205 6.44288,-13.94112 0.0151,-4.618927 -2.03655,-8.678954 -5.14651,-10.18446 l -1.75262,-0.848431 -3.09629,0.826665 c -4.14672,1.107116 -8.66433,3.342663 -12.3172,6.095186 -3.8678,2.914471 -10.19569,9.507638 -15.742638,16.40259 -8.52076,10.591452 -9.704054,12.680361 -9.269294,16.363382 0.117099,0.991996 0.08563,1.803629 -0.06992,1.803629 -0.800258,0 -13.607045,-7.859162 -14.437644,-8.859971 -0.724211,-0.872622 17.923371,-20.077124 27.794676,-28.624779 5.30037,-4.589639 13.49477,-10.696709 18.52008,-13.802519 4.60163,-2.843966 6.46369,-3.226205 9.21889,-1.892436 5.41453,2.621133 7.2179,8.946032 7.20527,25.270925 -0.011,14.258356 -2.34381,26.413674 -7.61512,39.679829 -1.49011,3.750113 -6.01904,13.309728 -6.29138,13.279778 -0.0506,-0.006 -1.03179,-0.52114 -2.18042,-1.14572 z"
            id="path3443"
            inkscape:connector-curvature="0"
            transform="scale(0.8,0.8)" />
    <path
            style="fill:#2b7bb5;fill-opacity:1"
            d="M 7.4180787,105.70651 7.3881015,75.277791 9.174637,75.009883 c 2.088047,-0.313122 13.803677,0.05602 19.287441,0.607719 8.841716,0.889529 19.643064,3.632961 29.198723,7.416177 5.741079,2.272973 11.427456,5.017909 10.45942,5.048986 -0.325188,0.01044 -2.451305,-0.322758 -4.724705,-0.740441 -5.953057,-1.093731 -10.853975,-1.022325 -14.530082,0.211703 -3.743285,1.256579 -10.412297,4.61983 -14.330267,7.226901 -3.595266,2.392339 -8.4967,6.727882 -11.688991,10.339442 -5.33661,6.03751 -11.073027,16.50336 -13.406941,24.4604 -0.7511036,2.56074 -1.5063885,5.08307 -1.678411,5.60518 -0.1720225,0.5221 -0.3262579,-12.74365 -0.3427453,-29.47944 z"
            id="path3445"
            inkscape:connector-curvature="0"
            transform="scale(0.8,0.8)" />
    <path
            style="fill:#000000;fill-opacity:0"
            d="m 7.3991877,193.94627 0.011086,-23.63703 1.606588,3.03769 c 2.034734,3.84722 3.684751,6.24723 9.006335,13.10004 6.125087,7.88751 10.207727,12.47402 13.776328,15.47655 4.034962,3.39492 5.752797,4.53637 10.142303,6.73925 8.219215,4.12482 12.350497,5.10367 21.588736,5.11519 4.710732,0.006 7.255493,-0.15924 8.923215,-0.57899 2.970333,-0.7476 10.501842,-4.43875 14.640847,-7.1754 1.757087,-1.16175 3.252865,-2.05412 3.323951,-1.98303 0.146264,0.14626 -5.119241,4.63 -8.021538,6.83059 -2.518146,1.90932 -5.986285,3.84001 -9.746801,5.426 l -3.049617,1.28616 -31.106259,0 -31.1062605,0 0.011086,-23.63702 z"
            id="path3447"
            inkscape:connector-curvature="0"
            transform="scale(0.8,0.8)" />
    <path
            style="fill:#5d9ac6;fill-opacity:1"
            d="m 7.3881015,147.60577 c 0,-10.33403 0.00594,-10.41071 1.1121857,-14.34746 2.3962748,-8.52753 5.5484128,-15.42545 10.3252448,-22.59507 3.302821,-4.95725 9.551383,-11.352445 14.519616,-14.860353 3.830243,-2.70441 11.714748,-6.801925 15.621339,-8.118289 3.688565,-1.242896 9.480324,-1.191996 16.427571,0.144372 4.265016,0.820415 5.538579,1.24038 8.316675,2.742469 7.176232,3.880119 14.692587,8.843493 20.441397,13.498341 3.408637,2.75999 8.5435,7.55262 8.5435,7.97408 0,0.71276 -2.847148,0.81899 -5.833584,0.21765 -10.356132,-2.08527 -20.373459,-1.89562 -30.049129,0.56892 -9.029994,2.30007 -19.622837,7.58636 -27.529068,13.7382 -4.51211,3.51087 -7.339762,6.21888 -14.80874,14.18216 C 14.407802,151.48435 8.8473499,157.2006 8.0525962,157.63344 7.4271168,157.97409 7.3881015,157.38533 7.3881015,147.60577 Z"
            id="path3449"
            inkscape:connector-curvature="0"
            transform="scale(0.8,0.8)" />
    <path
            style="fill:#72a7cd;fill-opacity:1"
            d="m 7.3881015,147.57157 0,-10.42377 1.4563224,-5.06282 C 13.578448,115.6274 22.814431,102.52005 35.405999,94.389814 c 4.414651,-2.850492 12.489683,-6.602468 15.668755,-7.280317 3.406189,-0.726275 7.648004,-0.534767 14.029462,0.633397 4.84416,0.886752 6.132884,1.373998 11.16186,4.220117 8.624018,4.880709 17.551353,11.367089 23.581723,17.133879 2.513321,2.40347 2.939371,2.97525 2.468121,3.31232 -0.69945,0.50029 -3.233346,0.3033 -7.973935,-0.6199 -5.619275,-1.09433 -17.706001,-1.00959 -23.51397,0.16485 -10.130397,2.0485 -20.840549,6.82558 -29.693552,13.24431 -4.570874,3.31403 -8.959248,7.41615 -16.366707,15.29908 -9.866847,10.50018 -15.91277,16.69817 -16.7151598,17.13556 -0.6255116,0.34098 -0.6644947,-0.24929 -0.6644947,-10.06154 z"
            id="path3455"
            inkscape:connector-curvature="0"
            transform="scale(0.8,0.8)" />
    <path
            style="fill:#72a7cd;fill-opacity:1"
            d="m 105.92318,95.165102 c -0.62652,-0.275633 -4.66306,-2.825512 -8.970089,-5.666397 -5.451864,-3.596018 -7.901658,-5.429188 -8.06368,-6.034011 -0.486239,-1.815123 -0.236102,-4.520115 0.564537,-6.104918 3.077851,-6.092375 18.102932,-23.429111 24.262552,-27.995432 4.86217,-3.604471 12.61208,-6.779337 15.43161,-6.32179 4.09707,0.664864 7.22434,7.016921 6.17602,12.544659 -0.64327,3.391948 -13.32636,23.878507 -21.36368,34.508018 -4.0569,5.36532 -4.29088,5.600115 -5.56652,5.58588 -0.73239,-0.0082 -1.84423,-0.240381 -2.47075,-0.516009 z"
            id="path3457"
            inkscape:connector-curvature="0"
            transform="scale(0.8,0.8)" />
</svg>
