<?xml version="1.0" encoding="UTF-8" standalone="no"?>
<svg
   xmlns:dc="http://purl.org/dc/elements/1.1/"
   xmlns:cc="http://creativecommons.org/ns#"
   xmlns:rdf="http://www.w3.org/1999/02/22-rdf-syntax-ns#"
   xmlns:svg="http://www.w3.org/2000/svg"
   xmlns="http://www.w3.org/2000/svg"
   xmlns:sodipodi="http://sodipodi.sourceforge.net/DTD/sodipodi-0.dtd"
   xmlns:inkscape="http://www.inkscape.org/namespaces/inkscape"
   width="180pt"
   height="180pt"
   viewBox="0 0 180 180"
   version="1.1"
   id="svg3336"
   inkscape:version="0.91 r13725"
   sodipodi:docname="logo_withoutboarder.svg"
   inkscape:export-filename="C:\Users\gregor.noczinski\Dropbox\Photos\echocat\logo_withoutboarder_clean.png"
   inkscape:export-xdpi="1024.1125"
   inkscape:export-ydpi="1024.1125">
  <metadata
     id="metadata3383">
    <rdf:RDF>
      <cc:Work
         rdf:about="">
        <dc:format>image/svg+xml</dc:format>
        <dc:type
           rdf:resource="http://purl.org/dc/dcmitype/StillImage" />
        <dc:title />
      </cc:Work>
    </rdf:RDF>
  </metadata>
  <defs
     id="defs3381" />
  <sodipodi:namedview
     pagecolor="#ffffff"
     bordercolor="#666666"
     borderopacity="1"
     objecttolerance="10"
     gridtolerance="10"
     guidetolerance="10"
     inkscape:pageopacity="0"
     inkscape:pageshadow="2"
     inkscape:window-width="1920"
     inkscape:window-height="1017"
     id="namedview3379"
     showgrid="false"
     inkscape:zoom="2.6335799"
     inkscape:cx="70.545003"
     inkscape:cy="107.01459"
     inkscape:window-x="-8"
     inkscape:window-y="104"
     inkscape:window-maximized="1"
     inkscape:current-layer="svg3336" />
  <g
     id="#3389c8ff"
     transform="matrix(1.0459057,0,0,0.9949147,-6.9866875,0.60713972)">
    <path
       d="m 9.46,128.09 0.88,0.18 c 2.96,7.67 9.41,13.25 12.53,20.89 7.55,12.89 22.6,23.06 37.99,20.63 7.31,-1.61 12.51,-6.50052 19.1,-10.8 -4.65,6.16 -11.94,9.84 -18.67,13.32 C 46.2,175.39 29.483819,171.7322 14.323819,171.2552 10.753819,157.0352 11.5,142.56 9.46,128.09 Z"
       id="path3377"
       inkscape:connector-curvature="0"
       style="opacity:1;fill:#3389c8"
       sodipodi:nodetypes="cccccccc" />
  </g>
  <g
     id="#72a7cdff"
     transform="matrix(1.0459057,0,0,0.9949147,-6.9866875,0.60713972)">
    <path
       d="M 80.45,48.51 C 87.16,39.7 94.3,28.8 106.12,27 c 4.94,1.33 6.43,8.37 4.79,12.71 -6.22,10.9 -11.6,22.45 -19.93,31.96 -1.41,-0.3 -2.76,-0.83 -4.07,-1.4 -3.73,-2.79 -7.53,-5.49 -11.36,-8.13 -2.82,-5.21 2.34,-9.58 4.9,-13.63 z"
       id="path3361"
       inkscape:connector-curvature="0"
       style="opacity:1;fill:#72a7cd" />
    <path
       d="m 88.34,126.37 c 6.98,-7.65 6.79,-18.59 9.52,-28 6.25,8.73 8.41,20.74 4.7,30.95 -3.86,12.15 -12.77,21.94 -22.6,29.67 -5.922549,3.97563 -11.635973,9.45987 -19.1,10.8 -15.39,2.43 -28.44325,-5.90807 -37.227605,-18.45458 -4.862618,-7.10569 -11.809125,-15.07322 -12.352658,-23.11912 5.16,1.36 8.402053,4.65752 13.522053,6.17752 10.07,4.35 20.46821,3.99618 31.10821,4.34618 11.4,-1.75 24.2,-3.35 32.43,-12.37 z"
       id="path3363"
       inkscape:connector-curvature="0"
       style="opacity:1;fill:#72a7cd"
       sodipodi:nodetypes="sccccccccs" />
  </g>
  <path
     style="opacity:1;fill:#000000"
     inkscape:connector-curvature="0"
     id="path3346"
     d="m 138.89624,11.073642 c 16.00235,-0.338271 30.08161,19.570275 33.13566,33.678165 2.1429,20.128013 0.90282,26.508934 -7.21932,45.219871 -6.57875,9.362148 -17.99884,17.877312 -30.3719,18.862282 -0.72168,-7.78023 8.69147,-8.85474 13.81641,-12.217552 15.3539,-11.859383 16.31613,-32.115846 13.78504,-49.745735 -2.84486,-12.615518 -13.29346,-23.529732 -26.46141,-26.892544 -4.91576,-1.741101 0.0941,-7.849877 3.31552,-8.904487 z"
     sodipodi:nodetypes="cccccccc" />
  <path
     style="opacity:1;fill:#000000"
     inkscape:connector-curvature="0"
     id="path3348"
     d="m 130.46624,28.12648 c 9.85243,0 18.33472,7.282776 22.1732,15.550517 7.87567,18.386024 -4.16271,43.030061 -25.5724,46.203839 -1.40151,-6.715674 7.67695,-6.18837 11.69323,-9.262656 11.71414,-8.227945 12.31031,-25.857833 4.60198,-36.781997 -3.88031,-6.277911 -11.89194,-7.611097 -18.136,-10.814722 0.29285,-2.33805 3.04358,-4.039354 5.23999,-4.894981 z" />
  <path
     style="opacity:1;fill:#000000"
     inkscape:connector-curvature="0"
     id="path3350"
     d="m 128.29075,46.024996 c 16.3998,1.97988 14.03606,26.733358 -1.23417,29.081357 0.0209,-2.079372 1.47473,-3.482202 3.28415,-4.397523 6.82976,-3.15388 7.19583,-13.361705 2.78211,-18.326329 -2.14411,-1.532169 -10.58457,-4.526862 -4.83209,-6.357505 z" />
  <g
     id="#0866aaff"
     transform="matrix(1.0459057,0,0,0.9949147,-6.9866875,0.60713972)">
    <path
       d="m 100.72,17.69 c 5.14,-4.09 10.32,2.03 10.66,7.12 2.98,19.66 -0.86,40.11 -9.87,57.78 -5.37,-1.94 -9.41,-8.78 -14.6,-12.32 1.31,0.57 2.66,1.1 4.07,1.4 8.33,-9.51 13.71,-21.06 19.93,-31.96 C 112.55,35.37 111.06,28.33 106.12,27 94.3,28.8 87.16,39.7 80.45,48.51 77.89,52.56 72.73,56.93 75.55,62.14 71.25,59.7 67.04,57.08 63.2,53.93 74.34,40.68 86.11,27.21 100.72,17.69 Z"
       id="path3358"
       inkscape:connector-curvature="0"
       style="opacity:1;fill:#0866aa" />
  </g>
  <g
     id="#5d9ac6ff"
     transform="matrix(1.0459057,0,0,0.9949147,-6.9866875,0.60713972)">
    <path
       d="M 43.35,64.28 C 49.12,61.04 56.78358,64.19301 62.44358,65.773007 71.81358,70.373007 79.39,77.1 86.18,85.12 c -2.32,1.59 -5.21,-0.3 -7.75,-0.43 -19.44,-3.6 -38.87,7.06 -50.7,22.04 -5.7,5.51 -9.81,12.54 -16.03,17.5 C 8.88,100.64 20.37,73.6 43.35,64.28 Z"
       id="path3366"
       inkscape:connector-curvature="0"
       style="opacity:1;fill:#5d9ac6"
       sodipodi:nodetypes="ccccccc" />
  </g>
  <g
     id="#ecc91aff"
     transform="matrix(1.0459057,0,0,0.9949147,-6.9866875,0.60713972)">
    <path
       d="m 64.37,88.11 c 8.24,0.51 17.39,-0.38 24.67,4.08 1.19,10.72 -0.95,21.76 -4.98,31.7 -5.4,8.88 -16.89,10.44 -26.35,11.33 1.65,-11.95 6.36,-23.72 4.77,-35.97 -0.92,-3.87 -4.69,-6.26 -5.62,-10.13 2.46,-0.58 4.98,-0.92 7.51,-1.01 z"
       id="path3369"
       inkscape:connector-curvature="0"
       style="opacity:1;fill:#ecc91a" />
    <path
       d="m 39.23,99.87 c 2.01,-0.5 3.14,1.53 4.1,2.9 5.88,9.71 11.44,20.62 10.76,32.24 -11.9,1.49 -26.32,-0.59 -34.45,-10.06 4.48,-9.67 14.14,-15.9 19.59,-25.08 z"
       id="path3371"
       inkscape:connector-curvature="0"
       style="opacity:1;fill:#ecc91a" />
  </g>
  <g
     id="#b4b2a8ff"
     transform="matrix(1.0459057,0,0,0.9949147,-6.9866875,0.60713972)"
     style="fill:#ffffff">
    <path
       d="m 54.15,98.72 c 6.05,-1.76 7.84,12.36 1.05,10.51 -3.39,-2.04 -3.71,-7.89 -1.05,-10.51 z"
       id="path3374"
       inkscape:connector-curvature="0"
       style="opacity:1;fill:#ffffff" />
  </g>
  <path
     style="fill:#2b7bb5;fill-opacity:1"
     d="M 5.2924279,94.45703 C 5.1070323,82.99756 5.6812153,76.28227 6.5096998,68.821663 7.1025585,63.482902 8.453052,54.523677 8.8228031,54.162407 c 0.1484182,-0.145014 4.5182539,-0.624423 8.3324639,-0.540295 8.884923,0.195968 14.778024,1.513546 23.192029,4.266346 5.36705,1.755932 18.833032,8.557633 18.495239,8.878958 0,0 -3.277311,-0.944889 -4.497996,-1.267102 -1.220682,-0.322213 -5.443974,-1.327699 -6.956692,-1.512455 -3.808625,-0.46517 -6.348431,0.01202 -10.830229,2.022963 C 25.779464,70.84688 17.371885,78.562611 11.743014,89.631424 9.4701791,94.100812 8.4071742,96.469056 7.173207,101.55929 l -1.655399,6.82868 z"
     id="path3470"
     inkscape:connector-curvature="0"
     sodipodi:nodetypes="ssssscssssscs" />
  <path
     style="opacity:1;fill:#000000"
     d="M 109.87049,0.52920792 C 92.866079,5.9850758 68.184877,32.925215 55.684309,48.213808 54.188663,49.646485 52.923444,51.973964 50.685206,52.25254 34.818427,46.319886 17.54166,45.061961 0.65169245,44.537287 L 0.76402121,176.03322 C 21.839354,180.11103 53.446262,179.49347 64.203761,175.63253 81.286874,170.03062 103.72153,145.9231 109.48472,123.5786 112.5806,112.91311 109.61154,101.80053 104.65394,92.129964 114.84625,73.936943 123.97455,43.401855 124.28391,21.692127 123.96409,10.524228 125.32639,0.56306081 109.88759,0.52920792 Z M 101.83817,16.878658 c 4.02346,-0.125122 7.38998,4.455354 7.66779,8.411694 3.1168,19.560023 -0.8998,39.907274 -10.323414,57.487414 C 93.566033,80.847631 89.340574,74.042105 83.912323,70.520107 80.011095,67.744295 76.037306,65.058336 72.031487,62.431761 67.534093,60.004169 63.13083,57.396559 59.114552,54.262578 70.765941,41.079958 83.076578,27.679391 98.35726,18.207803 c 1.175991,-0.890138 2.35433,-1.29411 3.48091,-1.329145 z M 15.207758,54.307661 c 14.573041,0.06774 29.034105,4.722433 41.993017,11.630537 9.463149,5.217721 18.846661,11.377179 25.948363,19.356391 -2.426501,1.581915 -5.449168,-0.298164 -8.105769,-0.427502 -20.332406,-3.581693 -40.654354,7.023166 -53.027418,21.926993 -5.961663,5.48198 -10.260009,12.47623 -16.7655419,17.411 0.042857,2.2523 0.3244057,-1.43408 0.1625028,-5.18289 C 5.9908802,97.832696 4.1228776,77.279987 9.0156696,54.540844 11.0578,54.374196 13.125894,54.297984 15.207758,54.307661 Z m 45.130831,33.960792 c 8.618263,0.507407 18.188625,-0.376826 25.802819,4.060494 1.244627,10.665483 -0.994916,21.649343 -5.209916,31.538793 -5.647894,8.83484 -17.665347,10.3866 -27.559615,11.27207 1.725744,-11.88923 6.652286,-23.59968 4.989296,-35.787386 -0.962233,-3.85032 -4.905624,-6.227856 -5.878316,-10.078176 2.572928,-0.57705 5.20959,-0.916253 7.855732,-1.005795 z m 35.026402,10.208756 c 6.536909,8.685601 8.796069,20.634531 4.915759,30.792611 -4.037199,12.08821 -14.704165,20.97391 -24.086783,29.94684 -10.479904,9.01369 -8.555304,7.43796 -18.964112,11.64823 -17.579978,3.27805 -33.491251,0.81515 -49.2348521,-0.94165 C 5.8337224,155.77556 7.6352298,144.72638 5.5015822,131.3944 l 6.6434088,2.49112 c 4.88673,2.07802 3.969822,1.78616 9.324859,3.29843 11.767353,3.57609 19.052058,1.80814 30.180495,2.15636 11.923325,-1.7411 25.151125,-4.03136 33.758929,-13.00549 7.300421,-7.6111 7.100394,-18.49547 9.955717,-27.857611 z M 50.781626,98.67464 c 5.393564,0.09382 6.623524,12.33227 -0.03433,10.60672 -3.54562,-2.02962 -3.88031,-7.84926 -1.098201,-10.455931 0.395483,-0.10944 0.772948,-0.157045 1.132523,-0.150789 z m -15.990917,1.220323 c 1.648302,0.07195 2.66281,1.767217 3.54137,2.959867 6.149926,9.66062 11.966142,20.51422 11.254926,32.07513 -12.446278,1.48242 -27.528238,-0.58639 -36.031452,-10.00823 4.685658,-9.62082 14.788127,-15.81883 20.488313,-24.952149 0.262784,-0.06216 0.511369,-0.0849 0.746843,-0.07458 z"
     id="path3344"
     inkscape:connector-curvature="0"
     sodipodi:nodetypes="cccccccccccsccccccsscccccccsccccccccccccccccsccccscccccccc" />
  <path
     style="fill:#2b7bb5;fill-opacity:1"
     d="M 7.1809468,117.23578 C 7.2856549,100.71839 7.4156455,97.31647 8.2787146,88.506668 8.9650466,81.500916 10.960032,68.806276 11.451976,68.314332 c 0.05272,-0.05272 2.07561,-0.16869 4.495314,-0.257716 13.139769,-0.483437 29.000127,2.687896 43.197195,8.63743 4.250285,1.781158 12.472309,5.739477 12.293393,5.918394 -0.06807,0.06806 -1.536309,-0.24563 -3.262763,-0.697101 -12.149949,-3.17723 -15.385062,-2.947291 -24.894897,1.769435 -6.534982,3.241246 -11.406911,6.675635 -16.305981,11.494645 -5.515006,5.424881 -8.907394,10.201341 -12.907861,18.174191 -2.95468,5.88862 -3.810534,8.24334 -5.6872905,15.64751 l -1.305369,5.14994 0.1072303,-16.91528 z"
     id="path3488"
     inkscape:connector-curvature="0"
     transform="scale(0.8,0.8)" />
  <path
     style="fill:#2b7bb5;fill-opacity:1"
     d="m 35.382552,214.97046 c -2.510442,-0.20111 -9.23419,-0.87969 -14.941664,-1.50796 l -10.377225,-1.14231 -0.3009404,-2.4348 C 9.0828056,204.38441 8.9033294,201.17921 8.5288666,187.85034 8.1798201,175.42616 8.0005506,172.0192 7.4622089,167.57886 l -0.1464849,-1.20823 0.8000073,1.81558 c 1.7785895,4.03642 3.8422157,7.17059 11.2362507,17.06523 9.340601,12.49952 15.248848,17.89202 24.622455,22.47308 4.035166,1.97206 7.343117,3.10723 11.530077,3.95669 2.548042,0.51696 3.805778,0.60173 8.875651,0.59825 5.559474,-0.004 6.056955,-0.0459 8.457638,-0.71458 5.05344,-1.40767 9.214611,-3.56565 16.240502,-8.42229 2.034602,-1.40642 3.75016,-2.50624 3.812351,-2.44405 0.131556,0.13156 -3.721172,3.42559 -6.599792,5.64275 -2.726852,2.10026 -4.50207,3.03038 -9.972532,5.22506 -4.972881,1.99505 -6.290967,2.31121 -13.146401,3.15328 -4.962313,0.60954 -21.453293,0.75838 -27.789379,0.25083 z"
     id="path3490"
     inkscape:connector-curvature="0"
     transform="scale(0.8,0.8)" />
  <path
     style="fill:#2b7bb5;fill-opacity:1"
     d="m 121.70415,102.29149 c -2.37862,-1.35815 -4.24703,-2.912972 -8.90495,-7.410381 -2.41209,-2.328971 -4.842,-4.581801 -5.39979,-5.006288 -0.5578,-0.424488 -0.97549,-0.810475 -0.92822,-0.857752 0.0473,-0.04728 0.84669,0.150809 1.77646,0.440186 0.92978,0.289378 1.77712,0.526143 1.88299,0.526143 0.28983,0 3.96734,-4.340824 6.27077,-7.401818 2.91674,-3.876025 7.15192,-10.407678 10.86918,-16.76286 7.04254,-12.040206 9.14217,-15.752486 9.49118,-16.781026 0.47593,-1.402543 0.47564,-5.544077 -5.3e-4,-7.249403 -0.90146,-3.228608 -2.83525,-5.811052 -5.219,-6.96963 -1.35742,-0.659751 -1.4118,-0.664338 -3.2565,-0.274692 -7.80604,1.648825 -14.91206,6.297876 -22.11527,14.468715 -5.66608,6.427219 -14.936669,18.464603 -16.205562,21.042091 -1.062078,2.157385 -1.339368,4.944848 -0.654871,6.583081 0.228612,0.547088 0.371768,0.994707 0.318147,0.994707 -0.688906,0 -12.634593,-7.451952 -14.770266,-9.213978 l -0.799096,-0.659293 2.138342,-2.379891 C 95.571615,43.81639 106.85684,33.413842 120.6659,24.388792 c 4.15695,-2.716816 5.07472,-3.140477 6.80316,-3.140477 2.59547,0 5.50191,1.888393 7.35781,4.780564 1.20195,1.873081 1.61449,3.251296 2.18563,7.301775 2.78655,19.761876 -0.11822,40.643573 -8.35985,60.097081 -2.19009,5.169455 -4.53665,9.712115 -5.01555,9.709465 -0.25092,-0.001 -1.12075,-0.38195 -1.93295,-0.84571 z"
     id="path3492"
     inkscape:connector-curvature="0"
     transform="scale(0.8,0.8)" />
  <path
     style="fill:#5d9ac6;fill-opacity:1"
     d="m 6.9746926,144.95285 0.114878,-9.9963 1.3226785,-5.4125 c 1.8623679,-7.62095 2.6054669,-9.70749 5.6265339,-15.79872 3.952926,-7.97008 7.319937,-12.79961 12.615307,-18.094984 5.085305,-5.085305 9.970647,-8.522689 17.051851,-11.99788 6.021298,-2.95503 8.419444,-3.658727 12.485083,-3.663546 3.362859,-0.004 5.439365,0.361414 12.532627,2.205347 3.851149,1.001128 4.293606,1.187263 8.054892,3.388561 9.194443,5.381062 16.912144,11.090936 22.989759,17.008772 3.601908,3.50721 3.941088,3.91555 3.512678,4.22882 -0.69393,0.50741 -3.484201,0.42544 -6.055927,-0.1779 -7.914042,-1.8567 -17.447582,-1.95782 -25.754764,-0.27318 -13.589327,2.75582 -27.293773,10.18243 -37.97698,20.5802 -3.099356,3.01655 -11.829342,12.4291 -15.893251,17.13589 -3.531567,4.09023 -7.256067,7.94149 -9.5009511,9.8243 l -1.2392924,1.03941 0.1148781,-9.99629 z"
     id="path3494"
     inkscape:connector-curvature="0"
     transform="scale(0.8,0.8)" />
  <path
     style="fill:#5d9ac6;fill-opacity:1"
     d="m 56.325273,211.73279 c -7.323425,-1.33895 -14.752893,-4.7047 -21.301824,-9.65031 -2.76347,-2.08692 -8.265847,-7.55062 -10.952919,-10.87593 -2.420005,-2.99482 -9.977607,-13.20636 -11.823553,-15.97554 -0.885956,-1.32906 -2.046325,-3.20182 -2.5785981,-4.16169 -1.0604462,-1.91236 -2.6121993,-5.63037 -2.6121993,-6.25885 0,-0.40715 4.3139534,1.11269 11.1426014,3.92562 5.249801,2.16255 13.541606,4.38042 19.374428,5.1822 2.931857,0.40302 5.235629,0.46535 15.395858,0.41656 11.887814,-0.0571 11.97315,-0.0615 16.915275,-0.86858 17.834211,-2.91257 28.197548,-7.10017 35.804668,-14.4679 5.69378,-5.5146 8.07523,-10.73832 10.77685,-23.63908 1.23246,-5.88523 2.55195,-11.58768 2.72907,-11.79424 0.32913,-0.38385 3.80633,5.55978 5.15787,8.81642 6.50919,15.68442 3.23053,31.52771 -9.73848,47.05867 -2.91398,3.48962 -19.087593,19.5528 -19.687218,19.5528 -0.187601,0 -0.341089,0.12083 -0.341089,0.2685 0,0.14767 -0.171167,0.2685 -0.380371,0.2685 -0.209202,0 -0.420643,0.10615 -0.469869,0.2359 -0.196445,0.51779 -11.54569,7.7736 -14.18556,9.06912 -2.780753,1.36466 -5.951948,2.55513 -7.786396,2.92302 -0.516856,0.10365 -3.718676,0.22875 -7.115155,0.27799 -4.590833,0.0666 -6.726577,-0.0112 -8.323389,-0.30318 z"
     id="path3496"
     inkscape:connector-curvature="0"
     transform="scale(0.8,0.8)" />
  <path
     style="fill:#5d9ac6;fill-opacity:1"
     d="m 107.53683,89.151819 c -1.08312,-0.343125 -2.80434,-1.302001 -4.83294,-2.692393 -1.73288,-1.18771 -5.291852,-3.59854 -7.908824,-5.357401 -2.991892,-2.010842 -4.900835,-3.473887 -5.142569,-3.941347 -1.013136,-1.959189 -0.671712,-5.278275 0.80156,-7.792223 1.582755,-2.700768 10.636673,-14.339092 15.334783,-19.712045 7.19802,-8.231951 14.00711,-12.893069 21.52955,-14.73792 3.04261,-0.746189 3.9254,-0.543461 6.03692,1.38635 2.64907,2.421105 3.82069,5.698215 3.5923,10.04789 -0.1513,2.881349 0.15225,2.227755 -5.92335,12.75358 -9.00833,15.606695 -13.6243,22.564077 -19.19435,28.930489 -1.64565,1.880936 -1.77188,1.913719 -4.29308,1.11502 z"
     id="path3498"
     inkscape:connector-curvature="0"
     transform="scale(0.8,0.8)" />
</svg>
